<svg xmlns="http://www.w3.org/2000/svg" xmlns:xlink="http://www.w3.org/1999/xlink" version="1.1" x="0px" y="0px" viewBox="0 0 100 100" style="enable-background:new 0 0 100 100;" xml:space="preserve"><g><path d="M42.7,75.4L55.9,89c0.8,1,1.9,1.5,3.1,1.5c0,0,0,0,0,0c1.4,0,2.6-0.7,3.4-1.9c0.2-0.2,0.3-0.5,0.4-0.8l3.5-12.5h8.2   c8.3,0,15-6.7,15-15v-33c0-8.3-6.7-15-15-15h-49c-8.3,0-15,6.7-15,15v33c0,8.3,6.7,15,15,15H42.7z M16.5,60.4v-33c0-5,4-9,9-9h49   c5,0,9,4,9,9v33c0,5-4,9-9,9H64c-1.3,0-2.5,0.9-2.9,2.2l-3.1,11L46.2,70.3c-0.6-0.6-1.3-0.9-2.2-0.9H25.5   C20.5,69.4,16.5,65.4,16.5,60.4z"/><path d="M26,35h47c1.7,0,3-1.3,3-3s-1.3-3-3-3H26c-1.7,0-3,1.3-3,3S24.3,35,26,35z"/><path d="M26,47h47c1.7,0,3-1.3,3-3s-1.3-3-3-3H26c-1.7,0-3,1.3-3,3S24.3,47,26,47z"/><path d="M54.2,58c1.7,0,3-1.3,3-3s-1.3-3-3-3H26c-1.7,0-3,1.3-3,3s1.3,3,3,3H54.2z"/></g></svg>